<?xml version="1.0" encoding="utf-8"?>
<!-- Generator: Adobe Illustrator 24.0.1, SVG Export Plug-In . SVG Version: 6.00 Build 0)  -->
<svg version="1.1" id="ò_x2021__xF8FF__1" xmlns="http://www.w3.org/2000/svg" xmlns:xlink="http://www.w3.org/1999/xlink" x="0px"
	 y="0px" viewBox="0 0 8032.4 2115.8" style="enable-background:new 0 0 8032.4 2115.8;" xml:space="preserve">
<style type="text/css">
	.st0{fill:#333333;}
</style>
<path class="st0" d="M4795.9,899.8l-439.6,439.7c-33.8,33.7-52.4,78.6-52.4,126.4c0,47.8,18.6,92.6,52.4,126.4
	c33.7,33.8,78.6,52.4,126.4,52.4c47.7,0,92.6-18.6,126.4-52.4l313.3-313.3l314.8,314.8c33.8,33.8,78.7,52.4,126.4,52.4
	c47.8,0,92.6-18.6,126.4-52.4c33.8-33.7,52.4-78.6,52.4-126.4c0-47.8-18.6-92.6-52.4-126.4l-441.2-441.2
	c-33.7-33.7-78.6-52.3-126.3-52.4C4874.5,847.4,4829.7,866,4795.9,899.8z"/>
</svg>
