<?xml version="1.0" encoding="utf-8"?>
<!-- Generator: Adobe Illustrator 24.0.1, SVG Export Plug-In . SVG Version: 6.00 Build 0)  -->
<svg version="1.1" id="ò_x2021__xF8FF__1" xmlns="http://www.w3.org/2000/svg" xmlns:xlink="http://www.w3.org/1999/xlink" x="0px"
	 y="0px" viewBox="0 0 8032.4 2115.8" style="enable-background:new 0 0 8032.4 2115.8;" xml:space="preserve">
<style type="text/css">
	.st0{fill:#333333;}
</style>
<path class="st0" d="M5314.7,1565.9l439.7-439.7c33.8-33.7,52.4-78.6,52.4-126.4c0-47.8-18.6-92.6-52.4-126.4
	c-33.7-33.8-78.6-52.4-126.4-52.4c-47.7,0-92.6,18.6-126.4,52.4l-313.3,313.3L4873.6,872c-33.8-33.8-78.7-52.4-126.4-52.4
	c-47.8,0-92.6,18.6-126.4,52.4c-33.8,33.7-52.4,78.6-52.4,126.4c0,47.8,18.6,92.6,52.4,126.4l441.2,441.2
	c33.7,33.7,78.6,52.3,126.3,52.4C5236.1,1618.3,5281,1599.7,5314.7,1565.9z"/>
</svg>
