<?xml version="1.0" encoding="utf-8"?>
<!-- Generator: Adobe Illustrator 24.0.1, SVG Export Plug-In . SVG Version: 6.00 Build 0)  -->
<svg version="1.1" id="Layer_1" xmlns="http://www.w3.org/2000/svg" xmlns:xlink="http://www.w3.org/1999/xlink" x="0px" y="0px"
	 viewBox="0 0 612 792" style="enable-background:new 0 0 612 792;" xml:space="preserve">
<style type="text/css">
	.st0{fill:#119547;}
	.st1{display:none;}
	.st2{display:inline;fill:#FFFFFF;}
</style>
<g id="g1012_1_">
	<g>
		<defs>
			<polygon id="SVGID_3_" points="197.6,188 418.2,187.6 418.2,575.3 197.6,575.8 			"/>
		</defs>
		<clipPath id="SVGID_1_">
			<use xlink:href="#SVGID_3_"  style="display:none;overflow:visible;"/>
		</clipPath>
	</g>
	<path id="rect1004_1_" class="st0" d="M146.6,202h318.2c23.4,0,42.3,18.9,42.3,42.3v318.2c0,23.4-18.9,42.3-42.3,42.3H146.6
		c-23.4,0-42.3-18.9-42.3-42.3V244.3C104.3,221,123.3,202,146.6,202z"/>
	<g id="g1000-2_1_" transform="matrix(0.6910292,0,0,0.6910292,82.656552,38.732485)" class="st1">
		<rect id="rect993-6_1_" x="113.1" y="325.9" class="st2" width="119.7" height="403.8"/>
		<rect id="rect996-0_1_" x="412.8" y="325.9" class="st2" width="119.7" height="403.8"/>
		<polygon id="rect998-2_1_" class="st2" points="137.7,403.9 232.8,325.9 510.3,651.6 412.8,729.6 		"/>
	</g>
</g>
</svg>
