<?xml version="1.0" encoding="utf-8"?>
<!-- Generator: Adobe Illustrator 24.0.1, SVG Export Plug-In . SVG Version: 6.00 Build 0)  -->
<svg version="1.1" id="Layer_1" xmlns="http://www.w3.org/2000/svg" xmlns:xlink="http://www.w3.org/1999/xlink" x="0px" y="0px"
	 viewBox="0 0 1024 1024" style="enable-background:new 0 0 1024 1024;" xml:space="preserve">
<style type="text/css">
	.st0{fill:#22323E;}
</style>
<path class="st0" d="M511.8,484c172.3,0,265.6,0,279.9,0.1c38,0.1,76,0.3,113.9,0.5c0.2,0,0.3,0.1,0.3,0.3v0c0,0.2-0.1,0.3-0.3,0.3
	c0,0,0,0,0,0c-3.2,0-7,0.2-11.5,0.4c-3.7,0.2-7.5,0.3-11.5,0.4c-32.5,0.7-64.5,1.8-96.8,5.1c-18.7,1.9-37.5,5.4-54.8,12.9
	c-41.6,18.2-53.5,74.7-54.5,115.1c-0.2,8.5-0.4,16.4-0.4,23.6c0,0.3-0.2,0.6-0.5,0.6c-1.5,0.1-3.1,0.1-5,0.1c-8.5,0-61.5,0-158.9,0
	c-97.4,0-150.4,0-158.9,0c-1.8,0-3.5,0-5-0.2c-0.3,0-0.6-0.3-0.5-0.6c0-7.3-0.2-15.1-0.4-23.6c-1.1-40.5-13-97-54.5-115.1
	c-17.2-7.6-36.1-11-54.8-13c-32.2-3.3-64.3-4.5-96.8-5.2c-4-0.1-7.8-0.2-11.5-0.4c-4.5-0.2-8.3-0.4-11.5-0.4c-0.2,0-0.3-0.1-0.3-0.3
	c0,0,0,0,0,0v0c0-0.2,0.1-0.3,0.3-0.3c38-0.2,75.9-0.4,113.9-0.5C246.2,484,339.5,484,511.8,484z"/>
</svg>
