<?xml version="1.0" encoding="utf-8"?>
<!-- Generator: Adobe Illustrator 24.0.1, SVG Export Plug-In . SVG Version: 6.00 Build 0)  -->
<svg version="1.1" id="Layer_1" xmlns="http://www.w3.org/2000/svg" xmlns:xlink="http://www.w3.org/1999/xlink" x="0px" y="0px"
	 viewBox="0 0 1024 1024" style="enable-background:new 0 0 1024 1024;" xml:space="preserve">
<style type="text/css">
	.st0{fill:#22323E;}
</style>
<path class="st0" d="M512,340.5c99.8,0,154.4,0,164,0.1c0.3,0,0.6,0.3,0.6,0.6c0,6.9,0.1,13.8,0.2,20.9c0.6,29.3,5.9,59.3,19.7,84.9
	c8.7,16.2,21.3,27.6,37.7,34.1c22,8.8,48,11.9,70.5,13.4c37.8,2.5,68.5,3.1,101.6,4.3c0.1,0,0.3,0.1,0.3,0.3v0.1
	c0,0.2-0.1,0.3-0.3,0.3c-119.5,0.4-225.9,0.6-394.2,0.6c-168.3,0-274.6-0.1-394.2-0.6c-0.2,0-0.3-0.1-0.3-0.3v-0.1
	c0-0.1,0.1-0.3,0.3-0.3c33.1-1.2,63.8-1.9,101.6-4.3c22.5-1.5,48.6-4.6,70.5-13.4c16.4-6.6,29-17.9,37.7-34.2
	c13.8-25.6,19.1-55.6,19.6-84.9c0.1-7,0.2-14,0.2-20.9c0-0.3,0.3-0.6,0.6-0.6C357.5,340.5,412.2,340.5,512,340.5z"/>
</svg>
