<?xml version="1.0" encoding="utf-8"?>
<!-- Generator: Adobe Illustrator 24.0.1, SVG Export Plug-In . SVG Version: 6.00 Build 0)  -->
<svg version="1.1" id="Layer_1" xmlns="http://www.w3.org/2000/svg" xmlns:xlink="http://www.w3.org/1999/xlink" x="0px" y="0px"
	 viewBox="0 0 595.3 841.9" style="enable-background:new 0 0 595.3 841.9;" xml:space="preserve">
<style type="text/css">
	.st0{fill:#50B5E7;}
</style>
<path class="st0" d="M387.5,342.4c-3.3,24.5-6,49.1-6.4,73.8c-0.1,23.9,1.8,47.7,4.8,71.4c0.7,5.5,2,11.6-0.9,16.7
	c-3,5.5-9.7,7.7-15.7,7.1c-23.6-3.2-47.3-5.5-71.1-5.8c-24.7-0.2-49.3,2.3-73.7,5.1c-4.5,0.4-9.3-1-12.3-4.5c-3-3.3-4.1-8-3.4-12.4
	c3.1-26.4,6.4-53,5.8-79.7c0-1.8-0.1-3.5-0.2-5.3c-0.4-20.9-3-41.7-5.2-62.5c0.1-3.4,1.1-6.8,3.1-9.6c2.5-3.6,7.4-5.1,11.6-4.2
	c22.9,2.8,46,4.9,69.1,4.9c26.4-0.2,52.7-2.4,78.8-6.5c4.3-0.9,9.2-0.7,12.6,2.3C386.8,335.6,388,339,387.5,342.4z"/>
</svg>
