<?xml version="1.0" encoding="utf-8"?>
<!-- Generator: Adobe Illustrator 24.0.1, SVG Export Plug-In . SVG Version: 6.00 Build 0)  -->
<svg version="1.1" id="Layer_1" xmlns="http://www.w3.org/2000/svg" xmlns:xlink="http://www.w3.org/1999/xlink" x="0px" y="0px"
	 viewBox="0 0 595.3 841.9" style="enable-background:new 0 0 595.3 841.9;" xml:space="preserve">
<style type="text/css">
	.st0{fill:#010101;}
</style>
<path class="st0" d="M396.5,347.8c0.4-3.6,1.4-7.4,0.5-11c-0.9-5.8-5.1-10.7-10.2-13.5c-4.8-2.7-10.4-3.3-15.7-2.5
	c-12.7,2.3-25.5,3.6-38.2,4.8c-19.3,1.7-38.6,2.4-57.9,1.5c-15.1-0.8-30.1-1.8-45.1-3.9c-4.2-0.7-8.5-1.2-12.8-0.3
	c-5.5,0.9-10.5,4.3-13.5,9c-3.3,4.9-4.3,11.1-3.9,16.9c1.7,14.8,3.3,29.6,4.3,44.4c1,18,1,36-0.2,53.9c-1,15.5-3,31-4.7,46.5
	c-0.9,8.2,2.6,17.1,9.5,21.8c5.2,3.9,12.1,5.1,18.5,4.3c33-4.1,66.5-6.3,99.7-3.5c14.5,0.8,28.8,2.8,43.2,4.5
	c10.9,1.2,22.1-6.1,25.1-16.7c1.9-5.6,1.4-11.6,0.5-17.3c-3.5-28.4-5.7-57-4.1-85.7C392.1,383.4,394.5,365.6,396.5,347.8z
	 M387.5,342.1c-3.3,24.5-6,49.1-6.4,73.8c-0.1,23.9,1.8,47.7,4.8,71.4c0.7,5.5,2,11.6-0.9,16.7c-3,5.5-9.7,7.7-15.7,7.1
	c-23.6-3.2-47.3-5.5-71.1-5.8c-24.7-0.2-49.3,2.3-73.7,5.1c-4.5,0.4-9.3-1-12.3-4.5c-3-3.3-4.1-8-3.4-12.4c3.4-28.2,6.9-56.6,5.6-85
	c-0.4-20.9-3-41.7-5.2-62.5c0.1-3.4,1.1-6.8,3.1-9.6c2.5-3.6,7.4-5.1,11.6-4.2c22.9,2.8,46,4.9,69.1,4.9c26.4-0.2,52.7-2.4,78.8-6.5
	c4.3-0.9,9.2-0.7,12.6,2.3C386.8,335.3,388,338.8,387.5,342.1z"/>
</svg>
